<svg xmlns="http://www.w3.org/2000/svg" width="368" height="298" fill="none" viewBox="0 0 368 298"><path fill="#45E0A8" stroke="#fff" stroke-linecap="round" stroke-linejoin="round" stroke-width="2" d="M323.156 142.22C323.156 65.0575 260.604 2.5 183.442 2.5C106.274 2.5 43.7217 65.0575 43.7217 142.22C43.7217 188.952 66.6937 230.305 101.934 255.663L89.0364 290.827C88.1992 293.092 89.8791 295.5 92.2978 295.5H274.586C277.004 295.5 278.679 293.098 277.852 290.827L264.949 255.663C300.184 230.3 323.156 188.952 323.156 142.22Z"/><path fill="#45E0A8" d="M60.9414 166.937L305.941 149.316V186.189L66.4743 267.211L60.9414 255.804V166.937Z"/><path fill="#000" stroke="#000" stroke-linecap="round" stroke-linejoin="round" stroke-miterlimit="10" stroke-width="1.2" d="M301.81 184.521L296.239 182.892L296.58 155.758C296.58 154.583 295.898 153.522 294.837 153.067L294.269 152.84L297.603 152.537C299.839 152.347 301.772 154.128 301.772 156.364V184.521H301.81Z"/><path fill="#45E0A8" stroke="#000" stroke-linecap="round" stroke-linejoin="round" stroke-miterlimit="10" stroke-width="1.2" d="M296.277 182.854L59.9932 255.539L65.2229 261.868L226.396 209.154L301.81 184.521L296.277 182.854Z"/><path fill="#000" d="M45.4787 267.211L63.1763 271.91L66.4353 272.479L60.4477 220.636L66.4732 160.495L45.365 156.705C37.2552 157.236 29.0317 164.057 30.0928 175.843V251.825C30.0928 260.314 35.1709 263.99 45.4787 267.211Z"/><path fill="#45E0A8" d="M30.0938 172.129L30.6243 215.407L60.0318 221.849L66.5121 160.457L72.9888 159.976L73.4461 155.403L59.4255 156.251L44.5701 156.743C36.4224 157.274 30.0938 163.981 30.0938 172.129Z"/><path stroke="#000" stroke-linecap="round" stroke-linejoin="round" stroke-miterlimit="10" stroke-width="1.2" d="M45.4797 267.211L63.6699 272.024L66.4363 272.441V264.71L63.1772 258.874L58.2128 189.524L66.4363 171.03L315.984 143.821L44.5322 156.781C36.4224 157.274 30.0938 164.019 30.0938 172.167V251.825C30.0938 260.314 35.2098 263.99 45.4797 267.211Z"/><path fill="#fff" stroke="#000" stroke-linecap="round" stroke-linejoin="round" stroke-miterlimit="10" stroke-width="1.2" d="M328.527 144.313L66.4737 160.457C58.3638 160.95 52.0352 167.695 52.0352 175.843V257.055C52.0352 267.666 62.5324 275.093 72.5371 271.569L330.687 180.959C332.847 180.201 334.325 178.155 334.325 175.843V149.695C334.287 146.625 331.634 144.124 328.527 144.313ZM65.4504 251.105V179.481C65.4504 175.464 68.5201 172.129 72.5371 171.75L298.778 152.347C300.408 152.196 301.81 153.484 301.81 155.152V182.437C301.81 183.65 301.014 184.711 299.877 185.09L75.6067 258.495C70.6043 260.124 65.4504 256.373 65.4504 251.105Z"/><path stroke="#000" stroke-linecap="round" stroke-linejoin="round" stroke-miterlimit="10" stroke-width="1.2" d="M324.888 162.276C324.888 166.558 322.159 170.727 318.673 171.674C314.959 172.66 311.775 169.666 311.775 164.929C311.775 160.192 314.959 155.91 318.673 155.417C322.159 154.924 324.888 157.994 324.888 162.276Z"/><path stroke="#000" stroke-linecap="round" stroke-linejoin="round" stroke-miterlimit="10" stroke-width="1.2" d="M322.047 169.552L324.889 174.592"/><path fill="#45E0A8" d="M244.282 66.3986L241.516 65.6785C239.356 67.1186 230.943 73.5989 224.197 79.0938C218.626 83.6414 214.155 89.3637 211.161 95.9198C206.651 105.811 200.815 119.794 198.807 124.873C203.998 125.972 205.363 126.464 210.554 127.563"/><path stroke="#000" stroke-linecap="round" stroke-linejoin="round" stroke-miterlimit="10" stroke-width="1.2" d="M244.282 66.3986L241.516 65.6785C239.356 67.1186 230.943 73.5989 224.197 79.0938C218.626 83.6414 214.155 89.3637 211.161 95.9198C206.651 105.811 200.815 119.794 198.807 124.873C203.998 125.972 205.363 126.464 210.554 127.563"/><path fill="#fff" stroke="#000" stroke-linecap="round" stroke-linejoin="round" stroke-miterlimit="10" stroke-width="1.2" d="M100.618 112.556C104.711 127.487 110.32 155.796 103.915 190.433C99.6329 213.664 80.23 241.821 65.7536 249.665C65.0715 252.507 66.9663 254.743 66.4357 254.895C95.1232 247.278 211.958 209.571 262.056 193.162C277.329 156.933 267.817 114.678 266.642 99.7094C211.313 103.992 155.947 108.274 100.618 112.556Z"/><path stroke="#000" stroke-linecap="round" stroke-linejoin="round" stroke-miterlimit="10" stroke-width="1.2" d="M237.273 136.961C236.136 143.29 230.755 148.444 225.26 148.444C219.765 148.444 216.203 143.29 217.339 136.961C218.476 130.633 223.858 125.479 229.353 125.479C234.847 125.479 238.41 130.633 237.273 136.961Z"/><path stroke="#000" stroke-linecap="round" stroke-linejoin="round" stroke-miterlimit="10" stroke-width="1.2" d="M196.155 105.166L245.875 101.339"/><mask id="mask0" width="195" height="161" x="74" y="93" mask-type="alpha" maskUnits="userSpaceOnUse"><path fill="#fff" stroke="#000" stroke-linecap="round" stroke-linejoin="round" stroke-miterlimit="10" stroke-width="1.2" d="M100.618 107.068C104.711 121.999 110.319 150.308 103.915 184.945C97.9651 217.271 84.2466 240.501 75.5684 252.969C136.544 233.073 197.443 213.14 258.38 193.207C261.677 180.057 264.633 164.557 266.263 147.087C268.12 127.077 267.816 109.19 266.642 94.1835C211.313 98.5037 155.946 102.786 100.618 107.068Z"/></mask><g mask="url(#mask0)"><path stroke="#000" stroke-linecap="round" stroke-linejoin="round" stroke-miterlimit="10" stroke-width="3" d="M103.954 243.753C120.742 222.418 131.732 208.813 148.596 182.778C157.653 168.756 165.99 155 173.721 141.585C179.027 149.391 184.787 159.245 189.789 171.106C197.141 188.538 199.832 199.983 201.348 212.072"/><path stroke="#000" stroke-linecap="round" stroke-linejoin="round" stroke-miterlimit="10" stroke-width="3" d="M166.86 267.211C182.019 247.922 197.481 226.548 212.677 202.977C220.863 190.319 228.404 177.889 235.377 165.725C240.19 172.773 245.381 181.679 249.891 192.404C256.561 208.131 259.517 222.493 260.881 233.408"/><path stroke="#000" stroke-linecap="round" stroke-linejoin="round" stroke-miterlimit="10" stroke-width="3" d="M237.274 136.961C236.137 143.29 230.756 148.444 225.261 148.444C219.766 148.444 216.203 143.29 217.34 136.961C218.477 130.633 223.859 125.479 229.353 125.479C234.848 125.479 238.411 130.633 237.274 136.961Z"/></g><path fill="#000" d="M101.641 158.297V169.287L98.6469 169.552C96.6005 211.844 79.964 235.34 65.4498 247.353C65.4119 246.974 65.1466 249.817 65.9803 249.551C78.5998 242.162 93.3035 231.664 103.915 190.433C106.87 178.988 106.833 167.923 106.795 157.994C105.051 158.108 103.119 158.221 101.641 158.297Z"/><path fill="#000" d="M51.9974 212.944L30.5859 208.964V202.636L51.9974 205.667V212.944Z"/><path fill="#45E0A8" d="M306.205 31.0792C306.205 31.0792 259.365 49.0799 243.107 62.0025C237.347 66.588 235.263 68.4828 229.957 74.4704C224.879 80.1928 220.976 91.789 220.066 99.4062C218.285 113.807 217.148 134.763 223.401 134.763C230.791 134.763 237.612 107.364 240.113 99.7473C242.614 94.5934 265.959 78.9422 269.976 83.5655C279.563 94.5934 240.492 120.363 252.202 130.86C256.56 134.763 289.075 104.787 296.617 96.6777C303.286 89.5153 311.813 79.4349 316.815 72.6893C324.698 69.6955 327.275 67.3838 335.157 64.39L306.205 31.0792Z"/><path fill="#fff" d="M231.321 72.6893C226.243 78.4116 220.976 91.789 220.066 99.4062C218.285 113.807 217.148 134.763 223.401 134.763C223.78 134.763 224.159 134.688 224.538 134.536C224.159 125.517 223.439 112.859 228.517 96.6019C235.263 75.001 245.911 64.6174 255.499 54.4233C252.126 56.5076 249.322 57.8718 245.911 60.1077C239.696 64.0868 236.665 66.7017 231.321 72.6893Z"/><path stroke="#000" stroke-linecap="round" stroke-linejoin="round" stroke-miterlimit="10" stroke-width="1.2" d="M306.205 31.0792C306.205 31.0792 281.914 39.9848 263.193 49.9894C256.599 53.5138 236.173 63.7458 228.442 76.7442C223.553 84.9677 220.976 91.789 220.029 99.4062C218.248 113.807 217.111 134.763 223.364 134.763C230.754 134.763 237.575 107.364 240.076 99.7473C242.577 94.5934 266.073 78.8285 269.939 83.5655C278.958 94.5934 240.455 120.363 252.165 130.86C256.523 134.763 289.038 104.787 296.58 96.6777C303.249 89.5153 311.776 79.4349 316.778 72.6893C324.661 69.6955 327.238 67.3838 335.12 64.39L306.205 31.0792Z"/><path stroke="#000" stroke-linecap="round" stroke-linejoin="round" stroke-miterlimit="10" stroke-width="1.2" d="M99.9346 75.0388L102.625 97.7008"/><path stroke="#000" stroke-linecap="round" stroke-linejoin="round" stroke-miterlimit="10" stroke-width="1.2" d="M98.002 58.5539L98.8357 65.6784"/><path stroke="#000" stroke-linecap="round" stroke-linejoin="round" stroke-miterlimit="10" stroke-width="1.2" d="M91.2188 101.339L74.2412 77.1989"/><path stroke="#000" stroke-linecap="round" stroke-linejoin="round" stroke-miterlimit="10" stroke-width="1.2" d="M75.6055 112.556L89.0966 117.748"/><path fill="#000" stroke="#000" stroke-linecap="round" stroke-linejoin="round" stroke-miterlimit="10" stroke-width="1.2" d="M335.727 65.3753C339.024 64.0868 338.228 54.158 333.984 43.2059C329.739 32.216 323.6 24.3715 320.303 25.6599L301.431 32.9739C304.728 31.6854 310.829 39.5679 315.111 50.5199C319.356 61.5098 320.151 71.4387 316.854 72.6893L335.727 65.3753Z"/><path fill="#fff" d="M331.786 60.7899C331.786 62.9121 330.081 64.6174 327.958 64.6174C325.836 64.6174 324.131 62.9121 324.131 60.7899C324.131 58.6677 325.836 56.9623 327.958 56.9623C330.081 56.9623 331.786 58.6677 331.786 60.7899Z"/><path stroke="#000" stroke-linecap="round" stroke-linejoin="round" stroke-miterlimit="10" stroke-width="1.2" d="M328.525 144.313L315.981 143.821"/></svg>